<mxfile host="app.diagrams.net" agent="Mozilla/5.0 (Windows NT 10.0; Win64; x64) AppleWebKit/537.36 (KHTML, like Gecko) Chrome/131.0.0.0 Safari/537.36" version="26.0.5">
  <diagram name="Page-1" id="16r_zyI3Jh8YUKkggny_">
    <mxGraphModel dx="2022" dy="643" grid="1" gridSize="10" guides="1" tooltips="1" connect="1" arrows="1" fold="1" page="1" pageScale="1" pageWidth="827" pageHeight="1169" math="0" shadow="0">
      <root>
        <mxCell id="0" />
        <mxCell id="1" parent="0" />
        <mxCell id="sIiAX7ygWfq8gV1jkMVZ-1" style="edgeStyle=orthogonalEdgeStyle;rounded=0;orthogonalLoop=1;jettySize=auto;html=1;entryX=0.5;entryY=0;entryDx=0;entryDy=0;" edge="1" parent="1" source="sIiAX7ygWfq8gV1jkMVZ-2" target="sIiAX7ygWfq8gV1jkMVZ-5">
          <mxGeometry relative="1" as="geometry" />
        </mxCell>
        <mxCell id="sIiAX7ygWfq8gV1jkMVZ-2" value="&lt;font style=&quot;font-size: 20px;&quot;&gt;Start&lt;/font&gt;" style="rounded=1;whiteSpace=wrap;html=1;" vertex="1" parent="1">
          <mxGeometry x="79" y="75" width="120" height="34" as="geometry" />
        </mxCell>
        <mxCell id="sIiAX7ygWfq8gV1jkMVZ-3" style="edgeStyle=orthogonalEdgeStyle;rounded=0;orthogonalLoop=1;jettySize=auto;html=1;" edge="1" parent="1" source="sIiAX7ygWfq8gV1jkMVZ-5" target="sIiAX7ygWfq8gV1jkMVZ-8">
          <mxGeometry relative="1" as="geometry" />
        </mxCell>
        <mxCell id="sIiAX7ygWfq8gV1jkMVZ-4" value="No" style="edgeLabel;html=1;align=center;verticalAlign=middle;resizable=0;points=[];" vertex="1" connectable="0" parent="sIiAX7ygWfq8gV1jkMVZ-3">
          <mxGeometry x="0.2114" relative="1" as="geometry">
            <mxPoint y="1" as="offset" />
          </mxGeometry>
        </mxCell>
        <mxCell id="sIiAX7ygWfq8gV1jkMVZ-5" value="Is it a prolog?" style="rhombus;whiteSpace=wrap;html=1;" vertex="1" parent="1">
          <mxGeometry x="79" y="191" width="120" height="44" as="geometry" />
        </mxCell>
        <mxCell id="sIiAX7ygWfq8gV1jkMVZ-6" style="edgeStyle=orthogonalEdgeStyle;rounded=0;orthogonalLoop=1;jettySize=auto;html=1;entryX=0.5;entryY=0;entryDx=0;entryDy=0;" edge="1" parent="1" source="sIiAX7ygWfq8gV1jkMVZ-8" target="sIiAX7ygWfq8gV1jkMVZ-11">
          <mxGeometry relative="1" as="geometry">
            <mxPoint x="139" y="363" as="targetPoint" />
          </mxGeometry>
        </mxCell>
        <mxCell id="sIiAX7ygWfq8gV1jkMVZ-7" value="No" style="edgeLabel;html=1;align=center;verticalAlign=middle;resizable=0;points=[];" vertex="1" connectable="0" parent="sIiAX7ygWfq8gV1jkMVZ-6">
          <mxGeometry x="0.4709" relative="1" as="geometry">
            <mxPoint y="-11" as="offset" />
          </mxGeometry>
        </mxCell>
        <mxCell id="sIiAX7ygWfq8gV1jkMVZ-8" value="Is it a comment?" style="rhombus;whiteSpace=wrap;html=1;" vertex="1" parent="1">
          <mxGeometry x="79" y="265" width="120" height="64" as="geometry" />
        </mxCell>
        <mxCell id="sIiAX7ygWfq8gV1jkMVZ-9" style="edgeStyle=orthogonalEdgeStyle;rounded=0;orthogonalLoop=1;jettySize=auto;html=1;entryX=0.5;entryY=0;entryDx=0;entryDy=0;" edge="1" parent="1" source="sIiAX7ygWfq8gV1jkMVZ-11" target="sIiAX7ygWfq8gV1jkMVZ-13">
          <mxGeometry relative="1" as="geometry">
            <mxPoint x="139" y="457" as="targetPoint" />
          </mxGeometry>
        </mxCell>
        <mxCell id="sIiAX7ygWfq8gV1jkMVZ-10" value="&amp;lt; and &amp;gt;" style="edgeLabel;html=1;align=center;verticalAlign=middle;resizable=0;points=[];" vertex="1" connectable="0" parent="sIiAX7ygWfq8gV1jkMVZ-9">
          <mxGeometry x="-0.2638" y="-1" relative="1" as="geometry">
            <mxPoint as="offset" />
          </mxGeometry>
        </mxCell>
        <mxCell id="sIiAX7ygWfq8gV1jkMVZ-24" style="edgeStyle=orthogonalEdgeStyle;rounded=0;orthogonalLoop=1;jettySize=auto;html=1;entryX=0;entryY=0.5;entryDx=0;entryDy=0;" edge="1" parent="1" source="sIiAX7ygWfq8gV1jkMVZ-11" target="sIiAX7ygWfq8gV1jkMVZ-25">
          <mxGeometry relative="1" as="geometry">
            <mxPoint x="320" y="390" as="targetPoint" />
          </mxGeometry>
        </mxCell>
        <mxCell id="sIiAX7ygWfq8gV1jkMVZ-26" value="/&amp;gt;" style="edgeLabel;html=1;align=center;verticalAlign=middle;resizable=0;points=[];" vertex="1" connectable="0" parent="sIiAX7ygWfq8gV1jkMVZ-24">
          <mxGeometry x="-0.4545" y="-4" relative="1" as="geometry">
            <mxPoint x="74" y="-4" as="offset" />
          </mxGeometry>
        </mxCell>
        <mxCell id="sIiAX7ygWfq8gV1jkMVZ-27" style="edgeStyle=orthogonalEdgeStyle;rounded=0;orthogonalLoop=1;jettySize=auto;html=1;entryX=1;entryY=0.5;entryDx=0;entryDy=0;" edge="1" parent="1" source="sIiAX7ygWfq8gV1jkMVZ-11" target="sIiAX7ygWfq8gV1jkMVZ-28">
          <mxGeometry relative="1" as="geometry">
            <mxPoint x="-10" y="390" as="targetPoint" />
          </mxGeometry>
        </mxCell>
        <mxCell id="sIiAX7ygWfq8gV1jkMVZ-29" value="&amp;lt;/" style="edgeLabel;html=1;align=center;verticalAlign=middle;resizable=0;points=[];" vertex="1" connectable="0" parent="sIiAX7ygWfq8gV1jkMVZ-27">
          <mxGeometry x="-0.0148" relative="1" as="geometry">
            <mxPoint as="offset" />
          </mxGeometry>
        </mxCell>
        <mxCell id="sIiAX7ygWfq8gV1jkMVZ-38" style="edgeStyle=orthogonalEdgeStyle;rounded=0;orthogonalLoop=1;jettySize=auto;html=1;entryX=0.5;entryY=0;entryDx=0;entryDy=0;" edge="1" parent="1" source="sIiAX7ygWfq8gV1jkMVZ-11" target="sIiAX7ygWfq8gV1jkMVZ-37">
          <mxGeometry relative="1" as="geometry" />
        </mxCell>
        <mxCell id="sIiAX7ygWfq8gV1jkMVZ-11" value="Detect &amp;lt;, &amp;gt;, /&amp;gt; and &amp;lt;/" style="rhombus;whiteSpace=wrap;html=1;" vertex="1" parent="1">
          <mxGeometry x="68" y="361" width="142" height="58" as="geometry" />
        </mxCell>
        <mxCell id="sIiAX7ygWfq8gV1jkMVZ-12" style="edgeStyle=orthogonalEdgeStyle;rounded=0;orthogonalLoop=1;jettySize=auto;html=1;entryX=0.5;entryY=0;entryDx=0;entryDy=0;" edge="1" parent="1" source="sIiAX7ygWfq8gV1jkMVZ-13" target="sIiAX7ygWfq8gV1jkMVZ-15">
          <mxGeometry relative="1" as="geometry" />
        </mxCell>
        <mxCell id="sIiAX7ygWfq8gV1jkMVZ-13" value="Detect the text within these &amp;lt; &amp;gt; values" style="rounded=0;whiteSpace=wrap;html=1;" vertex="1" parent="1">
          <mxGeometry x="79" y="459" width="120" height="39" as="geometry" />
        </mxCell>
        <mxCell id="sIiAX7ygWfq8gV1jkMVZ-14" style="edgeStyle=orthogonalEdgeStyle;rounded=0;orthogonalLoop=1;jettySize=auto;html=1;entryX=0.5;entryY=0;entryDx=0;entryDy=0;" edge="1" parent="1" source="sIiAX7ygWfq8gV1jkMVZ-15" target="sIiAX7ygWfq8gV1jkMVZ-17">
          <mxGeometry relative="1" as="geometry" />
        </mxCell>
        <mxCell id="sIiAX7ygWfq8gV1jkMVZ-15" value="Extract the attributes" style="rounded=0;whiteSpace=wrap;html=1;" vertex="1" parent="1">
          <mxGeometry x="84" y="526" width="110" height="30" as="geometry" />
        </mxCell>
        <mxCell id="sIiAX7ygWfq8gV1jkMVZ-16" style="edgeStyle=orthogonalEdgeStyle;rounded=0;orthogonalLoop=1;jettySize=auto;html=1;entryX=0.5;entryY=0;entryDx=0;entryDy=0;" edge="1" parent="1" source="sIiAX7ygWfq8gV1jkMVZ-17" target="sIiAX7ygWfq8gV1jkMVZ-19">
          <mxGeometry relative="1" as="geometry" />
        </mxCell>
        <mxCell id="sIiAX7ygWfq8gV1jkMVZ-17" value="Get last node whose closing tag is yet met" style="rounded=0;whiteSpace=wrap;html=1;" vertex="1" parent="1">
          <mxGeometry x="84" y="587.5" width="110" height="44" as="geometry" />
        </mxCell>
        <mxCell id="sIiAX7ygWfq8gV1jkMVZ-44" style="edgeStyle=orthogonalEdgeStyle;rounded=0;orthogonalLoop=1;jettySize=auto;html=1;entryX=0.5;entryY=0;entryDx=0;entryDy=0;" edge="1" parent="1" source="sIiAX7ygWfq8gV1jkMVZ-19" target="sIiAX7ygWfq8gV1jkMVZ-42">
          <mxGeometry relative="1" as="geometry" />
        </mxCell>
        <mxCell id="sIiAX7ygWfq8gV1jkMVZ-19" value="Set that node to be my parent and add myself as a child" style="rounded=0;whiteSpace=wrap;html=1;" vertex="1" parent="1">
          <mxGeometry x="84" y="660" width="110" height="44" as="geometry" />
        </mxCell>
        <mxCell id="sIiAX7ygWfq8gV1jkMVZ-46" style="edgeStyle=orthogonalEdgeStyle;rounded=0;orthogonalLoop=1;jettySize=auto;html=1;entryX=1;entryY=0.5;entryDx=0;entryDy=0;" edge="1" parent="1" source="sIiAX7ygWfq8gV1jkMVZ-25" target="sIiAX7ygWfq8gV1jkMVZ-42">
          <mxGeometry relative="1" as="geometry">
            <Array as="points">
              <mxPoint x="400" y="767" />
            </Array>
          </mxGeometry>
        </mxCell>
        <mxCell id="sIiAX7ygWfq8gV1jkMVZ-25" value="Pop the last index of the unprocessed list" style="rounded=0;whiteSpace=wrap;html=1;" vertex="1" parent="1">
          <mxGeometry x="340" y="370.5" width="120" height="39" as="geometry" />
        </mxCell>
        <mxCell id="sIiAX7ygWfq8gV1jkMVZ-31" style="edgeStyle=orthogonalEdgeStyle;rounded=0;orthogonalLoop=1;jettySize=auto;html=1;entryX=0.5;entryY=0;entryDx=0;entryDy=0;" edge="1" parent="1" source="sIiAX7ygWfq8gV1jkMVZ-28" target="sIiAX7ygWfq8gV1jkMVZ-30">
          <mxGeometry relative="1" as="geometry" />
        </mxCell>
        <mxCell id="sIiAX7ygWfq8gV1jkMVZ-28" value="Detect the text within &amp;lt;/ &amp;gt;" style="rounded=0;whiteSpace=wrap;html=1;" vertex="1" parent="1">
          <mxGeometry x="-140" y="370.5" width="120" height="39" as="geometry" />
        </mxCell>
        <mxCell id="sIiAX7ygWfq8gV1jkMVZ-33" style="edgeStyle=orthogonalEdgeStyle;rounded=0;orthogonalLoop=1;jettySize=auto;html=1;entryX=0.5;entryY=0;entryDx=0;entryDy=0;" edge="1" parent="1" source="sIiAX7ygWfq8gV1jkMVZ-30" target="sIiAX7ygWfq8gV1jkMVZ-32">
          <mxGeometry relative="1" as="geometry" />
        </mxCell>
        <mxCell id="sIiAX7ygWfq8gV1jkMVZ-30" value="extract node name" style="rounded=0;whiteSpace=wrap;html=1;" vertex="1" parent="1">
          <mxGeometry x="-140" y="450" width="120" height="39" as="geometry" />
        </mxCell>
        <mxCell id="sIiAX7ygWfq8gV1jkMVZ-35" style="edgeStyle=orthogonalEdgeStyle;rounded=0;orthogonalLoop=1;jettySize=auto;html=1;entryX=0.5;entryY=0;entryDx=0;entryDy=0;" edge="1" parent="1" source="sIiAX7ygWfq8gV1jkMVZ-32" target="sIiAX7ygWfq8gV1jkMVZ-34">
          <mxGeometry relative="1" as="geometry" />
        </mxCell>
        <mxCell id="sIiAX7ygWfq8gV1jkMVZ-32" value="extract node attributes" style="rounded=0;whiteSpace=wrap;html=1;" vertex="1" parent="1">
          <mxGeometry x="-140" y="510" width="120" height="39" as="geometry" />
        </mxCell>
        <mxCell id="sIiAX7ygWfq8gV1jkMVZ-43" style="edgeStyle=orthogonalEdgeStyle;rounded=0;orthogonalLoop=1;jettySize=auto;html=1;entryX=0;entryY=0.5;entryDx=0;entryDy=0;" edge="1" parent="1" source="sIiAX7ygWfq8gV1jkMVZ-34" target="sIiAX7ygWfq8gV1jkMVZ-42">
          <mxGeometry relative="1" as="geometry">
            <Array as="points">
              <mxPoint x="-80" y="767" />
            </Array>
          </mxGeometry>
        </mxCell>
        <mxCell id="sIiAX7ygWfq8gV1jkMVZ-34" value="last index of the unprocessed nodes is it&#39;s parent" style="rounded=0;whiteSpace=wrap;html=1;" vertex="1" parent="1">
          <mxGeometry x="-140" y="580" width="120" height="39" as="geometry" />
        </mxCell>
        <mxCell id="sIiAX7ygWfq8gV1jkMVZ-41" style="edgeStyle=orthogonalEdgeStyle;rounded=0;orthogonalLoop=1;jettySize=auto;html=1;entryX=0.5;entryY=0;entryDx=0;entryDy=0;" edge="1" parent="1" source="sIiAX7ygWfq8gV1jkMVZ-37" target="sIiAX7ygWfq8gV1jkMVZ-39">
          <mxGeometry relative="1" as="geometry" />
        </mxCell>
        <mxCell id="sIiAX7ygWfq8gV1jkMVZ-37" value="None of these elements were detected, then it&#39;s a string" style="rounded=0;whiteSpace=wrap;html=1;" vertex="1" parent="1">
          <mxGeometry x="230" y="498" width="133" height="59" as="geometry" />
        </mxCell>
        <mxCell id="sIiAX7ygWfq8gV1jkMVZ-45" style="edgeStyle=orthogonalEdgeStyle;rounded=0;orthogonalLoop=1;jettySize=auto;html=1;entryX=1;entryY=0.5;entryDx=0;entryDy=0;" edge="1" parent="1" source="sIiAX7ygWfq8gV1jkMVZ-39" target="sIiAX7ygWfq8gV1jkMVZ-42">
          <mxGeometry relative="1" as="geometry">
            <Array as="points">
              <mxPoint x="300" y="767" />
            </Array>
          </mxGeometry>
        </mxCell>
        <mxCell id="sIiAX7ygWfq8gV1jkMVZ-39" value="Get last node of the unprocessed list, set string to that nodes inner content" style="rounded=0;whiteSpace=wrap;html=1;" vertex="1" parent="1">
          <mxGeometry x="230" y="588.5" width="133" height="59" as="geometry" />
        </mxCell>
        <mxCell id="sIiAX7ygWfq8gV1jkMVZ-42" value="&lt;font style=&quot;font-size: 20px;&quot;&gt;End&lt;/font&gt;" style="rounded=1;whiteSpace=wrap;html=1;" vertex="1" parent="1">
          <mxGeometry x="79" y="750" width="120" height="34" as="geometry" />
        </mxCell>
      </root>
    </mxGraphModel>
  </diagram>
</mxfile>
